<svg width="2170" height="1747" viewBox="0 0 2170 1747" fill="none" xmlns="http://www.w3.org/2000/svg">
<path fill-rule="evenodd" clip-rule="evenodd" d="M986.906 2.71604C993.231 2.07104 1000.66 1.20104 1003.41 0.78304C1011.24 -0.40896 1032.04 -0.193959 1035.62 1.11504C1040.62 2.94404 1047.15 8.98104 1050.21 14.602C1052.61 19.019 1053.33 22.428 1055.42 39.504C1059.93 76.3 1067.83 144.111 1071.41 176.789C1073.37 194.664 1077 225.489 1079.48 245.289C1085.78 295.587 1096.55 390.753 1097.13 401.289C1097.33 404.9 1097.82 406.289 1098.88 406.289C1100 406.289 1101.85 399.334 1106.59 377.289C1110.03 361.339 1115.77 336.139 1119.35 321.289C1122.93 306.439 1127.46 286.864 1129.42 277.789C1131.38 268.714 1134.98 252.739 1137.41 242.289C1139.85 231.839 1144.58 210.914 1147.92 195.789C1154.23 167.233 1159.4 145.079 1163.55 128.789C1167.57 113.006 1171.35 107.48 1181.41 102.664C1191.27 97.938 1195.16 98.44 1251.73 111.74C1268.05 115.578 1290.86 120.776 1302.41 123.289C1313.96 125.803 1337.58 131.204 1354.91 135.292C1372.23 139.379 1394.73 144.556 1404.91 146.795C1415.08 149.035 1429.93 152.386 1437.91 154.242C1445.88 156.098 1464.78 160.369 1479.91 163.732C1515.72 171.697 1518.65 172.473 1523.49 175.297C1528.83 178.412 1534.63 184.908 1537.15 190.603C1539.92 196.88 1539.28 202.787 1532.52 232.789C1529.49 246.264 1523.2 274.164 1518.54 294.789C1513.89 315.414 1509.77 334.263 1509.38 336.675L1508.68 341.061L1511.55 340.343C1514 339.728 1531.34 336.395 1550.91 332.778C1561.78 330.769 1585.73 326.605 1602.91 323.74C1612.53 322.135 1624.91 319.936 1630.41 318.854C1650.59 314.883 1663.77 313.43 1668.03 314.707C1672.56 316.065 1673.91 315.549 1673.91 312.453C1673.91 311.233 1676.18 299.222 1678.95 285.762C1681.72 272.302 1685.75 252.514 1687.9 241.789C1690.05 231.064 1692.58 219.904 1693.52 216.989C1695.55 210.736 1701.33 203.796 1707.55 200.155C1715.85 195.287 1719.24 195.59 1769.41 205.677C1835.75 219.017 1915.01 235.164 1934.41 239.291C1950.85 242.79 1958.36 244.272 1984.91 249.265C2013.71 254.681 2045.71 262.012 2050.89 264.378C2057.76 267.517 2062.34 271.833 2065.63 278.269C2067.97 282.853 2068.13 283.964 2067.6 292.269C2067.28 297.23 2064.27 314.564 2060.9 330.789C2057.53 347.014 2051.23 377.839 2046.9 399.289C2042.57 420.739 2034.08 462.589 2028.03 492.289C2005.28 603.912 1997.18 644.733 1997.7 645.253L1990.37 645.289L1990.93 642.539L1995.59 619.789C1998.45 605.764 2003.54 580.564 2006.88 563.789C2013.21 532.058 2020.52 496.128 2023.97 479.789C2025.08 474.564 2029.31 453.639 2033.37 433.289C2042.13 389.401 2050.17 349.628 2056.46 319.09C2058.97 306.881 2061.09 294.056 2061.17 290.59C2061.45 277.212 2053.91 270.164 2035.16 266.3C2032.86 265.826 2031.78 266.02 2031.49 266.959C2030.82 269.127 2020.89 317.52 2005.48 393.789C1997.53 433.114 1986.7 486.439 1981.41 512.289C1976.12 538.139 1968.69 574.589 1964.9 593.289C1961.11 611.989 1957.32 630.439 1956.48 634.289C1955.8 637.398 1955.21 640.718 1955 642.539C1954.95 642.973 1954.93 643.322 1954.92 643.562L1954.91 645.835L1947.91 645.539C1947.91 645.468 1948.12 644.387 1948.49 642.539C1950.8 631.035 1959.33 589.825 1961.9 577.789C1963.6 569.814 1966.78 554.064 1968.96 542.789C1971.14 531.514 1974.71 513.739 1976.9 503.289C1979.09 492.839 1984.06 468.314 1987.94 448.789C1991.83 429.264 1997.66 400.914 2000.9 385.789C2004.15 370.664 2008.6 348.839 2010.8 337.289C2013 325.739 2016.42 308.639 2018.39 299.289C2023.72 274.104 2025.24 265.787 2024.64 265.186C2024.34 264.889 2017.42 263.34 2009.25 261.744C2001.09 260.148 1993.51 258.626 1992.41 258.363C1990.54 257.915 1990.06 259.647 1985.12 284.586C1982.21 299.273 1977.59 322.089 1974.86 335.289C1972.12 348.489 1963.61 390.339 1955.94 428.289C1948.27 466.239 1939.7 508.314 1936.9 521.789C1934.09 535.264 1929.37 558.439 1926.4 573.289C1923.44 588.139 1918.97 609.862 1916.46 621.563C1914.5 630.729 1912.82 638.997 1912.18 642.539C1912 643.519 1911.91 644.137 1911.91 644.313L1905.74 644.039C1905.87 643.799 1906.03 643.277 1906.23 642.539C1906.82 640.314 1907.66 636.125 1908.37 631.789C1909.31 626.014 1913.43 605.314 1917.53 585.789C1921.62 566.264 1926.78 540.839 1929 529.289C1931.22 517.739 1935.01 498.839 1937.42 487.289C1942.69 462.064 1947.84 436.86 1955.4 399.289C1971.48 319.467 1979.14 282.031 1981.8 270.301C1983.9 261.062 1984.43 257.112 1983.63 256.619C1981.75 255.457 1970.58 253.789 1964.67 253.789C1959.74 253.789 1958.51 254.241 1953.83 257.754C1950.93 259.935 1947.75 262.984 1946.77 264.529C1944.59 267.982 1940.17 287.375 1929.87 338.789C1910.8 434 1874.04 614.201 1870.51 629.782C1869.31 635.064 1868.3 640.251 1868 642.539C1867.94 642.99 1867.91 643.328 1867.91 643.532V645.789H1738.12L1737.73 642.539L1737.67 642.039C1737.42 639.977 1736.48 634.464 1735.59 629.789C1734.69 625.114 1733 615.664 1731.84 608.789C1728.75 590.419 1726.59 578.272 1719.35 538.289C1715.76 518.489 1710.84 490.589 1708.41 476.289C1705.98 461.989 1702.14 440.389 1699.88 428.289C1697.62 416.189 1693.99 395.939 1691.81 383.289C1682.91 331.569 1682.53 330.321 1673.97 324.833C1668.39 321.251 1665.03 320.709 1653.16 321.479C1649.27 321.731 1646.86 322.339 1646.8 323.087C1646.56 325.655 1647.12 329.933 1650.03 347.789C1653.04 366.21 1655.11 377.849 1660.81 408.289C1662.46 417.089 1664.26 426.989 1664.82 430.289C1672.08 473.55 1681.54 526.597 1682.42 529.039C1682.67 529.727 1685.36 545.139 1688.4 563.289C1691.44 581.439 1694.38 598.539 1694.93 601.289C1695.48 604.039 1697.27 613.406 1698.9 622.106C1700.53 630.805 1702.34 639.692 1702.92 641.856L1703.11 642.539L1703.98 645.789H1697.07L1696.5 643.039C1696.48 642.933 1696.45 642.765 1696.4 642.539C1695.83 639.523 1693.45 626.125 1690.85 611.289C1688.06 595.339 1684.01 573.064 1681.87 561.789C1679.72 550.514 1676.16 530.714 1673.94 517.789C1671.73 504.864 1669.46 491.814 1668.9 488.789C1664.77 466.567 1654.55 409.495 1652.42 396.789C1650.99 388.264 1648.93 376.339 1647.84 370.289C1646.75 364.239 1645.2 355.464 1644.39 350.789C1643.89 347.863 1643.44 345.243 1643.05 342.899C1640.64 328.731 1639.95 324.626 1638.01 323.922C1637.22 323.635 1636.23 323.914 1634.83 324.306C1634.26 324.466 1633.62 324.644 1632.91 324.81C1630.98 325.257 1623.89 326.631 1617.16 327.862C1610.42 329.093 1604.91 330.246 1604.91 330.424C1604.91 331.933 1615.99 395.967 1619.95 417.289C1622.7 432.139 1625.59 448.114 1626.37 452.789C1630.36 476.624 1632.28 487.582 1636.87 512.789C1645.26 558.798 1647.78 572.771 1649.95 585.289L1651.76 595.74C1652.04 597.343 1652.32 598.956 1652.59 600.526C1653.12 603.581 1653.63 606.471 1654.03 608.789C1657.02 626.05 1658.83 635.761 1660.03 641.039L1660.37 642.539L1661.11 645.789H1654.17L1653.76 642.539L1653.63 641.539C1653.14 637.587 1644.24 587.686 1638.52 556.789C1637.14 549.364 1633.51 528.889 1630.45 511.289C1627.39 493.689 1624 474.564 1622.92 468.789C1620.17 454.176 1614.78 423.697 1609.92 395.289C1606.02 372.53 1603.83 360.159 1600.24 340.789C1599.37 336.114 1598.38 332.025 1598.04 331.702C1597.69 331.379 1593.2 332.142 1588.06 333.399C1582.92 334.655 1577.66 336.373 1576.38 337.215C1571.05 340.709 1565.91 350.471 1565.91 357.104C1565.91 359.965 1573.28 402.474 1579.91 437.789C1581.51 446.314 1584.88 465.214 1587.4 479.789C1592.42 508.783 1594.94 522.882 1603.26 568.789C1606.31 585.564 1610.42 608.739 1612.41 620.289C1614.13 630.264 1615.73 639.428 1616.3 642.539C1616.39 643.03 1616.45 643.37 1616.49 643.539L1431.95 643.789C1432.03 643.626 1432.17 643.205 1432.36 642.539C1434.19 636.18 1440.81 607.525 1449.37 568.922C1455.55 541.011 1464.12 503.273 1475.06 455.789C1477.78 443.964 1483.56 418.539 1487.9 399.289C1492.24 380.039 1498.06 354.614 1500.84 342.789C1503.61 330.964 1509.24 306.439 1513.35 288.289C1517.45 270.139 1523.11 245.614 1525.92 233.789C1529.17 220.12 1531.24 208.944 1531.6 203.104C1532.14 194.442 1532.02 193.659 1529.51 189.38C1526.3 183.894 1520.79 180.443 1511.89 178.347L1511.45 178.243C1506.4 177.052 1504.2 176.532 1503.02 177.401C1502.1 178.073 1501.8 179.575 1501.26 182.239L1501.2 182.539C1499.89 189.038 1490.32 231.518 1482.9 263.789C1480.19 275.614 1474.38 301.264 1470 320.789C1465.61 340.314 1460.23 364.164 1458.03 373.789C1453.75 392.499 1444.53 433.007 1421.3 535.289C1413.3 570.489 1404.32 609.628 1401.33 622.265C1399.29 630.899 1397.51 638.524 1396.58 642.539C1396.15 644.4 1395.91 645.486 1395.91 645.538L1389.77 645.789L1390.47 642.539L1391.43 638.039C1392.35 633.776 1395.56 619.489 1398.58 606.289C1401.6 593.089 1406.71 570.364 1409.95 555.789C1413.18 541.214 1418.78 516.464 1422.38 500.789C1425.98 485.114 1430.07 467.114 1431.47 460.789C1432.86 454.464 1434.86 445.689 1435.91 441.289C1436.95 436.889 1441.44 417.089 1445.88 397.289C1450.32 377.489 1456.4 350.939 1459.38 338.289C1462.37 325.639 1466.87 305.839 1469.4 294.289C1471.92 282.739 1474.63 270.589 1475.42 267.289C1476.2 263.989 1478.63 253.851 1480.81 244.76C1485.29 226.041 1495.91 177.673 1495.91 175.98C1495.91 175.367 1493.99 174.349 1491.66 173.716C1485.75 172.118 1465.2 167.789 1463.52 167.789C1462.59 167.789 1461.28 171.317 1459.53 178.539C1456.73 190.083 1445.06 241.242 1434.5 288.289C1430.92 304.239 1426.9 322.014 1425.57 327.789L1417.58 362.289C1412.11 385.929 1399.24 442.82 1388.51 490.789C1385.49 504.264 1381.2 523.164 1378.96 532.789C1376.73 542.414 1372.19 562.214 1368.87 576.789C1365.56 591.364 1360.68 612.514 1358.03 623.789C1356.15 631.784 1354.61 638.918 1353.95 642.539C1353.68 644.025 1353.56 644.919 1353.62 645.039L1347.38 645.289L1347.89 642.539L1348.57 638.789C1349.23 635.214 1352.07 622.164 1354.89 609.789C1357.71 597.414 1364.01 569.514 1368.88 547.789C1373.76 526.064 1378.93 503.339 1380.37 497.289C1381.82 491.239 1385.68 474.139 1388.97 459.289C1392.25 444.439 1397.16 422.839 1399.89 411.289C1402.61 399.739 1406.91 381.064 1409.42 369.789C1411.94 358.514 1416.01 340.696 1418.46 330.193C1420.91 319.69 1425.8 298.09 1429.34 282.193C1432.87 266.296 1437.58 245.639 1439.79 236.289C1447.12 205.324 1455.07 167.661 1454.56 166.333C1454.07 165.058 1439.04 161.763 1433.91 161.806C1432.53 161.818 1429.34 163.125 1426.81 164.712C1417.46 170.588 1416.35 173.154 1408.83 206.289C1406.59 216.189 1402.34 234.639 1399.4 247.289C1396.45 259.939 1391.51 281.764 1388.41 295.789C1385.31 309.814 1380.97 328.939 1378.78 338.289C1376.58 347.639 1371.46 370.139 1367.41 388.289C1363.35 406.439 1358.64 427.094 1356.95 434.19C1355.25 441.285 1351.42 458.16 1348.43 471.69C1345.45 485.219 1341.62 502.05 1339.93 509.091C1337.13 520.767 1330.3 550.915 1322.89 584.289C1321.31 591.439 1317.51 607.639 1314.46 620.289C1312.12 630.013 1310.1 638.715 1309.29 642.539C1309.05 643.69 1308.91 644.399 1308.91 644.561L866.997 645.063C867.135 644.918 867.165 644.005 867.103 642.539C866.982 639.686 866.513 634.739 865.816 629.289C861.853 598.338 854.872 540.789 853.441 527.289C850.395 498.546 843.651 440.449 837.48 389.789C835.571 374.114 832.845 350.489 831.423 337.289C826.674 293.219 824.872 277.534 820.391 241.289C817.942 221.489 813.902 187.064 811.413 164.789L810.876 159.979C799.707 60.0013 798.998 53.6571 796.152 48.4899C795.96 48.1412 795.758 47.7979 795.543 47.4315L795.54 47.4272L795.387 47.167C794.044 44.875 791.475 41.759 789.677 40.243C783.419 34.966 779.047 34.112 766.406 35.698C763.656 36.042 760.912 36.639 760.307 37.023C759.511 37.529 759.562 40.29 760.49 47.005C761.891 57.146 766.878 100.469 769.387 124.289C771.011 139.713 772.937 156.119 779.834 213.289C784.344 250.672 786.408 268.69 791.402 314.289C793.33 331.889 796.712 360.914 798.917 378.789C801.123 396.664 804.482 425.239 806.38 442.289C808.278 459.339 810.286 477.114 810.842 481.789C811.398 486.464 812.774 498.164 813.901 507.789C815.926 525.085 817.982 542.146 821.79 573.289C822.866 582.089 824.713 598.739 825.895 610.289C827.077 621.839 828.575 634.439 829.224 638.289L829.942 642.539L830.406 645.289L821.023 645.485C822.711 645.063 823.498 644.211 823.719 642.539C823.963 640.685 823.509 637.824 822.811 633.425L822.81 633.42C822.545 631.753 822.246 629.866 821.937 627.73C819.62 611.739 815.677 578.643 809.438 522.789C806.948 500.514 804.047 475.089 802.99 466.289C798.874 432.028 794.745 396.663 790.438 358.789C785.629 316.5 782.248 287.537 778.937 260.289C776.69 241.793 773.2 211.174 769.931 181.289C767.928 162.968 764.603 134.896 761.344 108.789C759.971 97.788 752.928 38.693 752.912 38.039C752.905 37.748 748.896 37.948 743.906 38.488C737.187 39.216 718.529 41.834 718.279 42.084C718.141 42.222 719.117 51.775 720.448 63.312C721.78 74.849 725.363 106.564 728.411 133.789C731.459 161.014 735.987 200.164 738.474 220.789C743.594 263.253 746.295 286.218 748.473 305.789C751.796 335.646 755.462 366.967 759.917 403.541C761.04 412.752 763.737 436.264 765.913 455.789C768.088 475.314 770.563 497.364 771.413 504.789C772.98 518.475 773.487 522.682 778.948 567.289C780.632 581.039 783.316 603.887 784.913 618.063C786.124 628.811 787.325 638.33 787.979 642.539C788.188 643.881 788.341 644.683 788.422 644.813L782.178 645.789L781.731 642.539L781.525 641.039C778.903 622.002 775.277 591.762 770.942 552.789C768.159 527.764 765.224 501.889 764.422 495.289C764.085 492.515 763.61 488.602 763.087 484.303C762.366 478.373 761.556 471.709 760.897 466.289C759.76 456.939 757.955 442.314 756.885 433.789C755.815 425.264 753.354 403.664 751.416 385.789C747.571 350.314 744.654 325.246 739.375 282.289C737.482 266.889 735.508 250.239 734.987 245.289C731.1 208.302 725.345 157.649 720.902 121.289C719.016 105.86 716.745 87.058 713.367 58.933C712.485 51.587 711.521 44.95 711.227 44.183C710.455 42.172 702.549 42.462 695.906 44.744C691.776 46.163 689.114 48.018 685.221 52.189C678.39 59.506 678.016 62.125 680.8 83.118C681.98 92.012 684.499 113.464 686.399 130.789C690.907 171.903 693.948 197.558 699.378 240.289C703.434 272.213 706.482 298.173 713.467 360.289C714.827 372.389 717.276 392.864 718.906 405.789C720.537 418.714 724.594 453.814 727.922 483.789C731.251 513.764 735.97 554.489 738.411 574.289C740.852 594.089 743.538 616.814 744.38 624.789C745.221 632.764 746.155 640.751 746.453 642.539L746.997 645.789H467.85L468.762 642.539L469.323 640.539C470.132 637.651 473.319 626.514 476.404 615.789C491.31 563.954 497.344 543.267 500.904 531.789C503.037 524.914 507.692 508.939 511.248 496.289C514.804 483.639 520.863 462.714 524.713 449.789C528.563 436.864 535.634 412.789 540.427 396.289C545.221 379.789 553.326 352.114 558.437 334.789C563.549 317.464 570.75 292.939 574.44 280.289C578.13 267.639 583.129 250.539 585.55 242.289C595.246 209.24 596.457 201.858 593.281 195.164C590.502 189.307 583.886 184.382 575.545 181.958C571.439 180.765 567.465 179.789 566.713 179.789C565.831 179.789 563.987 184.303 561.504 192.539C559.39 199.551 555.895 211.364 553.737 218.789L551.478 226.559L551.059 228L550.379 230.342L550.325 230.528L546.421 243.959L543.274 254.789C539.678 267.164 534.786 284.039 532.404 292.289C526.211 313.735 513.278 357.879 510.43 367.289C507.796 375.99 503.753 389.841 495.253 419.289C484.133 457.812 478.606 476.683 473.724 492.789C470.974 501.864 462.956 529.314 455.906 553.789C448.856 578.264 439.925 608.615 436.06 621.235C433.241 630.44 430.914 638.616 429.967 642.539C429.615 643.995 429.454 644.865 429.527 644.985L422.85 645.789L423.748 642.539L424.3 640.539C428.836 624.119 440.846 582.048 446.925 561.289C450.79 548.089 458.458 521.539 463.964 502.289C469.469 483.039 476.635 458.514 479.888 447.789C487.229 423.584 497.534 388.331 508.536 349.789C513.168 333.564 517.809 317.589 518.85 314.289C519.892 310.989 522.624 301.764 524.919 293.789C527.215 285.814 533.288 265.114 538.417 247.789C548.662 213.179 558.07 180.07 558.275 177.897C558.348 177.131 557.281 176.166 555.906 175.753C544.258 172.252 527.894 167.789 526.704 167.789C525.708 167.789 524.083 171.542 521.613 179.539C519.618 186.001 514.184 204.564 509.54 220.789C500.066 253.884 497.53 262.593 484.928 305.289C466.213 368.7 463.449 378.153 455.273 406.73C450.64 422.922 444.865 442.722 442.44 450.73C440.015 458.737 435.041 475.639 431.386 488.289C427.731 500.939 420.324 526.589 414.925 545.289C409.526 563.989 400.789 593.587 395.508 611.063C391.186 625.363 387.508 637.981 386.314 642.539C386.049 643.551 385.906 644.166 385.906 644.313L379.844 643.539C379.913 643.365 380.027 643.024 380.179 642.539C381.107 639.586 383.463 631.265 385.904 622.289C388.745 611.839 392.135 599.689 393.438 595.289C394.738 590.889 400.756 570.189 406.81 549.289C418.882 507.61 427.644 477.708 437.432 444.789C440.948 432.964 446.34 414.514 449.414 403.789C452.488 393.064 456.981 377.764 459.396 369.789C461.81 361.814 465.198 350.114 466.925 343.789C468.652 337.464 473.358 321.264 477.383 307.789C481.409 294.314 487.5 273.389 490.917 261.289C494.335 249.189 498.685 234.339 500.584 228.289C506.449 209.61 517.906 168.986 517.906 166.871C517.906 164.815 516.677 164.302 505.906 161.859C499.3 160.36 497.834 160.523 492.075 163.392C483.012 167.909 480.682 172.343 472.888 199.92C470.032 210.023 464.621 228.639 460.863 241.289C457.105 253.939 450.573 276.214 446.347 290.789C434.771 330.718 421.957 374.683 412.974 405.289C406.121 428.636 394.033 470.037 385.383 499.789C382.265 510.514 378.231 524.239 376.419 530.289C372.116 544.654 368.7 556.397 365.945 566.289C364.719 570.689 361.999 579.914 359.902 586.789C357.805 593.664 354.882 603.564 353.406 608.789C351.93 614.014 348.965 623.965 346.815 630.902C345.346 635.643 344.059 640.035 343.392 642.539C343.083 643.699 342.906 644.454 342.906 644.652L281.201 645.835L280.879 642.539L280.589 639.562C280.253 636.112 279.298 626.539 278.467 618.289C275.766 591.464 270.884 538.048 267.912 502.789C266.776 489.314 264.965 469.289 263.885 458.289C262.805 447.289 261.026 429.064 259.933 417.789C258.841 406.514 256.83 385.814 255.466 371.789C254.101 357.764 252.058 335.264 250.924 321.789C248.36 291.304 243.142 235.723 236.42 167.289C235.61 159.039 233.804 139.689 232.408 124.289C228.329 79.304 228.156 77.936 225.946 73.371C224.71 70.817 221.987 67.746 219.145 65.701C214.506 62.361 214.163 62.282 202.906 61.946C196.581 61.757 191.056 61.957 190.628 62.39C190.201 62.823 190.086 65.678 190.374 68.733C190.662 71.789 191.596 82.614 192.45 92.789C194.487 117.059 198.612 160.928 200.394 177.289C201.173 184.439 203.185 205.814 204.864 224.789C206.544 243.764 208.6 266.714 209.434 275.789C210.267 284.864 211.852 302.639 212.955 315.289C214.058 327.939 216.737 356.289 218.907 378.289C221.078 400.289 224.46 436.289 226.422 458.289C231.467 514.84 234.609 549.171 236.857 572.289C237.927 583.289 239.726 602.189 240.855 614.289C241.984 626.389 243.245 638.314 243.657 640.789L243.949 642.539L244.406 645.289L236.906 645.789L236.907 642.539C236.907 640.751 235.79 626.914 234.424 611.789C233.058 596.664 230.588 568.989 228.934 550.289C227.281 531.589 225.267 509.764 224.46 501.789C220.603 463.683 214.698 401.36 212.428 374.789C211.041 358.564 209.447 340.564 208.885 334.789C208.323 329.014 206.266 307.414 204.314 286.789C202.361 266.164 199.893 240.514 198.828 229.789C197.764 219.064 196.221 202.414 195.399 192.789C194.577 183.164 192.571 160.664 190.941 142.789C189.31 124.914 187.042 99.978 185.899 87.375C184.757 74.773 183.589 64.085 183.305 63.625C183.021 63.165 182.252 62.851 181.597 62.927C180.942 63.003 176.356 63.462 171.406 63.947C166.456 64.431 159.256 65.156 155.406 65.558L148.406 66.289L148.649 71.289C149.009 78.706 154.577 140.666 157.411 168.789C160.222 196.69 161.498 210.392 166.441 265.789C171.737 325.128 175.63 366.994 178.902 399.789C181.969 430.532 185.523 468.681 188.878 506.882C191.789 540.03 194.75 572.893 195.898 584.789C196.455 590.564 197.374 600.239 197.94 606.289C199.417 622.082 201.084 636.912 201.973 642.539C202.186 643.886 202.355 644.706 202.465 644.885L195.263 645.021C195.383 644.829 195.406 643.904 195.349 642.539C195.281 640.912 195.099 638.658 194.826 636.271C194.325 631.881 192.785 615.239 191.404 599.289C188.733 568.448 186.192 541.104 182.901 507.789C179.084 469.161 175.871 435.281 174.412 418.289C172.924 400.959 166.048 324.845 163.436 296.789C162.642 288.264 161.75 279.489 161.453 277.289C161.157 275.089 160.006 263.389 158.898 251.289C154.855 207.178 150.914 163.636 148.398 135.289C146.982 119.339 144.943 97.637 143.865 87.062C142.788 76.487 141.906 67.599 141.906 67.312C141.906 66.333 133.422 66.919 128.906 68.21C122.071 70.162 119.593 71.34 116.056 74.316C108.608 80.583 107.602 87.291 110.359 112.289C111.148 119.439 112.277 130.914 112.869 137.789C113.461 144.664 114.605 157.039 115.411 165.289C115.765 168.91 116.348 174.885 117.03 181.869C117.047 182.047 117.065 182.225 117.082 182.405C117.942 191.219 118.952 201.564 119.852 210.789C121.489 227.564 124.432 259.739 126.391 282.289C130.844 333.529 133.878 366.308 138.887 417.289C141.049 439.289 143.978 470.339 145.396 486.289C146.815 502.239 148.66 522.714 149.496 531.789C150.333 540.864 152.985 569.768 155.391 596.021C157.369 617.603 159.243 636.27 160.039 642.539C160.212 643.895 160.334 644.671 160.395 644.771L154.186 645.789L153.564 640.039C153.223 636.876 151.807 621.689 150.418 606.289C149.029 590.889 147 569.289 145.909 558.289C144.817 547.289 143.259 531.089 142.445 522.289C141.631 513.489 139.607 491.664 137.946 473.789C136.285 455.914 133.797 428.385 132.416 412.613C129.643 380.939 126.945 352.062 120.943 289.789C115.758 235.999 115.668 235.033 110.369 176.289C107.888 148.789 105.198 120.664 104.391 113.789C101.708 90.926 102.655 79.737 107.831 73.157C114.982 64.066 123.77 61.293 153.406 58.773C160.556 58.165 184.406 55.916 206.406 53.775C246.288 49.893 271.552 47.531 292.406 45.734C298.456 45.213 305.206 44.555 307.406 44.273C309.606 43.99 319.281 43.09 328.906 42.272C358.713 39.739 396.066 36.042 441.094 31.167C455.794 29.576 457.058 29.575 461.18 31.149C472.057 35.303 480.238 43.301 483.316 52.789C484.119 55.264 485.255 63.139 485.838 70.289C486.422 77.439 487.608 90.489 488.474 99.289C489.34 108.089 490.807 124.064 491.734 134.789L493.419 154.289L500.014 154.435C508.117 154.615 518.261 156.682 531.406 160.833C536.906 162.57 546.745 165.511 553.27 167.37C559.794 169.228 570.144 172.307 576.27 174.212C582.395 176.118 599.106 181.059 613.406 185.192C627.706 189.325 650.428 196.067 663.898 200.173C677.369 204.28 688.515 207.513 688.669 207.359C688.823 207.205 688.036 199.026 686.92 189.184C685.803 179.342 684.226 165.439 683.415 158.289C682.603 151.139 680.787 136.289 679.38 125.289C672.723 73.275 672.017 64.529 673.922 57.671C676.182 49.534 684.698 41.479 694.201 38.488C701.347 36.239 727.197 32.739 773.406 27.766L776.656 27.4163C789.235 26.0625 797.82 25.1385 806.4 24.1715C824.845 22.0927 843.267 19.815 901.288 12.6413L907.906 11.823C916.431 10.769 931.731 8.97603 941.906 7.83803C952.081 6.70003 963.781 5.34604 967.906 4.82804C972.031 4.31104 980.581 3.36104 986.906 2.71604ZM821.023 645.485C819.228 645.934 816.413 645.896 812.178 645.838H812.173H812.168H812.163H812.157C810.488 645.815 808.599 645.789 806.465 645.789L821.023 645.485Z" fill="#EA7A30"/>
<path fill-rule="evenodd" clip-rule="evenodd" d="M0 1179.15C0.112 1480.63 0.373977 1731.68 0.582977 1737.04L0.962982 1746.79L2168.93 1746.29L2169.27 1200.79C2169.46 900.764 2169.37 649.552 2169.06 642.539H1990.93H1955H1948.49H1912.18H1906.23H1868H1737.73H1703.11H1696.4H1660.37H1653.76H1616.3H1432.36H1396.58H1390.47H1353.95H1347.89H1309.29H867.103H829.942H823.719H787.979H781.731H468.762H429.967H423.748H386.314H380.179H343.392H280.879H243.949H201.973H195.349H160.039H0V1179.15ZM1516.33 696.73C1530.63 696.104 1558.3 694.998 1577.83 694.273C1619.08 692.741 1625.16 692.901 1630.57 695.658C1637.6 699.246 1642.66 707.69 1643.39 717.067C1644.25 727.979 1646.84 791.395 1647.5 817.289C1648.1 841.269 1648.04 842.454 1646.06 846.342C1643.47 851.4 1638.33 856.599 1634.11 858.407C1629.97 860.182 1613.39 861.465 1577.83 862.759C1562.15 863.33 1525.25 864.683 1495.83 865.767C1449.41 867.477 1419.39 868.499 1330.33 871.397C1299.3 872.407 1279.85 873.431 1279.19 874.089C1278.55 874.727 1280 924.424 1281.84 965.289C1282.39 977.389 1283.51 1005.06 1284.35 1026.79C1285.18 1048.51 1286.29 1077.09 1286.83 1090.29C1288.8 1138.81 1290.83 1193.1 1291.83 1223.79C1292.39 1241.11 1293.28 1266.09 1293.8 1279.29C1294.32 1292.49 1295.02 1312.51 1295.34 1323.79C1295.66 1335.06 1296.57 1361.61 1297.36 1382.79C1298.15 1403.96 1299.25 1435.24 1299.82 1452.29C1300.38 1469.34 1301.27 1492.51 1301.79 1503.79C1302.31 1515.06 1303.01 1532.39 1303.34 1542.29C1304.18 1567.41 1307.64 1653.77 1308.39 1668.39L1309.01 1680.49L1302.17 1681.11C1298.41 1681.46 1285.99 1682.05 1274.58 1682.42L1253.83 1683.1V1679.51C1253.83 1677.53 1253.16 1659.8 1252.35 1640.1C1251.54 1620.4 1250.17 1586.51 1249.32 1564.79C1248.46 1543.06 1247.11 1509.76 1246.3 1490.79C1245.5 1471.81 1244.6 1449.76 1244.31 1441.79C1244.01 1433.81 1243.11 1411.76 1242.32 1392.79C1241.52 1373.81 1240.39 1342.54 1239.81 1323.29C1239.23 1304.04 1237.66 1256.79 1236.31 1218.29C1234.97 1179.79 1233.39 1133.89 1232.82 1116.29C1232.25 1098.69 1231.35 1074.16 1230.82 1061.79C1230.3 1049.41 1229.16 1022.19 1228.29 1001.29C1226.63 960.902 1225.82 954.399 1220.73 940.327C1210.68 912.573 1187.87 891.69 1157.83 882.761C1151.63 880.92 1147.11 880.45 1131.83 880.062C1108.62 879.472 1042.49 882.326 1031.63 884.386C1005.15 889.409 983.956 904.226 969.255 927.991C963.025 938.062 959.558 946.419 957.147 957.174C955.294 965.436 955.159 995.373 956.816 1030.29C957.364 1041.84 958.489 1071.76 959.315 1096.79C960.141 1121.81 961.277 1152.86 961.84 1165.79C962.403 1178.71 963.536 1206.84 964.358 1228.29C965.18 1249.74 966.289 1277.86 966.823 1290.79C968.717 1336.63 970.837 1393.72 971.819 1425.29C972.366 1442.89 973.044 1460.66 973.325 1464.79C973.607 1468.91 974.29 1487.81 974.844 1506.79C975.398 1525.76 976.513 1559.51 977.321 1581.79C978.13 1604.06 979.254 1635.79 979.818 1652.29C980.383 1668.79 981.101 1684.38 981.414 1686.93C981.731 1689.51 981.554 1691.84 981.016 1692.17C979.401 1693.17 930.668 1695.03 929.77 1694.13C929.31 1693.67 928.23 1677.99 927.37 1659.29C926.511 1640.59 925.584 1623.71 925.312 1621.79C925.04 1619.86 924.142 1597.59 923.318 1572.29C922.494 1546.99 921.596 1523.59 921.321 1520.29C920.88 1514.99 919.67 1480.19 918.364 1435.29C918.124 1427.04 917.454 1406.56 916.875 1389.79C916.295 1373.01 915.364 1345.56 914.806 1328.79C911.817 1239.06 909.774 1182.63 909.321 1177.29C909.041 1173.99 908.353 1157.11 907.791 1139.79C907.229 1122.46 906.334 1099.06 905.802 1087.79C905.27 1076.51 904.153 1049.06 903.321 1026.79C902.489 1004.51 901.38 976.389 900.856 964.289C900.333 952.189 899.637 931.039 899.309 917.289C898.981 903.539 898.49 891.22 898.219 889.913L897.725 887.538L882.025 888.178C866.478 888.813 812.182 890.756 752.326 892.821C683.928 895.18 586.967 899.065 551.518 900.868C539.524 901.478 528.542 901.684 527.115 901.325C522.9 900.267 516.095 895.045 513.022 890.511C508.947 884.496 508.007 879.515 507.322 860.289C506.989 850.939 506.084 832.635 505.311 819.613C504.538 806.591 503.602 786.566 503.23 775.113C502.58 755.094 502.638 754.112 504.72 749.709C507.464 743.908 514.046 737.016 518.72 735.05C522.555 733.436 533.163 732.854 595.326 730.844C613.476 730.258 646.551 729.116 668.826 728.308C691.101 727.499 723.276 726.358 740.326 725.771C791.083 724.025 892.047 720.143 961.326 717.274C1009.1 715.296 1069.09 713.099 1124.83 711.288C1149.85 710.474 1182.25 709.353 1196.83 708.797C1211.4 708.24 1243.35 707.094 1267.83 706.251C1349.23 703.445 1459.49 699.22 1516.33 696.73ZM1786.38 775.789C1790.21 745.657 1795.47 710.176 1796.32 708.804C1796.88 707.887 1799.7 707.724 1807.2 708.172C1812.77 708.504 1831.28 709.241 1848.33 709.81C1920.04 712.201 2076.98 718.645 2080.46 719.341C2082.96 719.842 2083.05 720.467 2085.31 754.289C2090.74 835.313 2093.09 1012.11 2093.06 1337.29C2093.05 1455.54 2092.71 1584.64 2092.3 1624.18L2091.57 1696.07L2079.45 1695.41C2056.44 1694.17 2003.23 1691.88 1972.33 1690.8C1933.9 1689.45 1927.1 1688.95 1926.54 1687.46C1926.29 1686.82 1926.46 1679.99 1926.91 1672.29C1928.84 1638.96 1932.42 1555.49 1933.82 1510.79C1934.36 1493.46 1935.03 1476.14 1935.3 1472.29C1935.57 1468.44 1936.04 1454.49 1936.35 1441.29C1936.95 1415.05 1938.31 1382.52 1939.88 1356.79C1941.23 1334.69 1943.84 1262.47 1943.32 1261.95C1942.76 1261.39 1920.36 1260.04 1904.83 1259.62L1892.33 1259.29L1891.64 1275.79C1891.26 1284.86 1890.23 1310.06 1889.35 1331.79C1888.47 1353.51 1887.09 1386.14 1886.3 1404.29C1880.87 1527.69 1880.97 1525.32 1875.79 1658.27C1875.03 1677.71 1874.34 1686.48 1873.51 1687C1872.86 1687.42 1870.98 1687.56 1869.33 1687.31C1867.68 1687.07 1858.68 1686.61 1849.33 1686.29C1828.3 1685.58 1768.6 1683.17 1735.83 1681.71C1722.35 1681.11 1710.93 1680.24 1710.45 1679.78C1709.96 1679.3 1710.5 1667.16 1711.71 1651.62C1712.89 1636.59 1714.52 1614.39 1715.35 1602.29C1719.72 1538.29 1723.35 1490.57 1727.3 1445.29C1729.08 1424.86 1733.03 1374.56 1735.83 1336.79C1741.03 1266.5 1742.11 1252.87 1745.33 1217.29C1749.18 1174.65 1752.32 1137.42 1756.84 1080.79C1760.35 1036.82 1763.75 998.936 1767.31 964.289C1768.67 951.089 1770.7 930.164 1771.83 917.789C1778.98 839.315 1781.72 812.552 1786.38 775.789ZM299.826 711.286C326.501 710.468 351.026 709.657 354.326 709.483C357.626 709.309 366.455 709.082 373.945 708.978L387.564 708.789L388.203 712.539C391.479 731.776 394.522 756.712 402.755 831.789C409.475 893.067 410.739 906.233 417.828 988.789C420.59 1020.96 424.397 1064.61 426.287 1085.79C429.538 1122.21 431.366 1145.04 437.335 1223.79C438.731 1242.21 441.889 1281.59 444.353 1311.29C448.454 1360.74 452.191 1410.09 454.842 1449.79C457.148 1484.34 460.003 1523.99 462.329 1553.79C463.681 1571.11 466.151 1603.29 467.818 1625.29C469.484 1647.29 471.128 1668.72 471.47 1672.91L472.092 1680.53L465.709 1681.16C462.198 1681.51 434.576 1682.69 404.326 1683.79C374.076 1684.89 340.111 1686.22 328.849 1686.76C317.586 1687.3 308.059 1687.41 307.677 1687.01C306.653 1685.95 305.005 1657.62 303.3 1611.79C302.471 1589.51 300.906 1547.66 299.822 1518.79C298.738 1489.91 297.612 1456.84 297.32 1445.29C297.029 1433.74 296.335 1412.59 295.778 1398.29C295.221 1383.99 294.109 1353.61 293.307 1330.79C292.504 1307.96 291.546 1282.38 291.176 1273.94L290.505 1258.59L275.416 1259.3C267.116 1259.69 255.601 1260.3 249.826 1260.65L239.326 1261.29L239.593 1281.79C239.74 1293.06 240.304 1313.31 240.847 1326.79C241.389 1340.26 242.503 1368.84 243.323 1390.29C244.143 1411.74 245.244 1439.19 245.771 1451.29C246.298 1463.39 246.988 1480.26 247.304 1488.79C247.62 1497.31 248.528 1520.71 249.323 1540.79C250.118 1560.86 251.254 1592.81 251.847 1611.79C252.441 1630.76 253.322 1655.51 253.806 1666.79C254.303 1678.35 254.309 1687.68 253.82 1688.18C252.851 1689.17 250.973 1689.26 192.826 1691.32C170.001 1692.12 137.725 1693.32 121.102 1693.98C104.479 1694.64 90.529 1694.83 90.102 1694.4C88.862 1693.16 89.24 1202.32 90.584 1068.29C91.729 954.145 92.168 929.857 94.846 832.789C96.578 769.989 99.144 720.328 100.708 719.362C102.23 718.421 211.091 714.006 299.826 711.286ZM1039.48 922.873C1043.25 922.252 1060.73 921.143 1078.33 920.408C1124.29 918.491 1138.92 918.534 1146.83 920.61C1165.76 925.58 1181.27 941.511 1186.28 961.141C1187.77 966.991 1190.03 1010.87 1191.32 1059.29C1191.65 1071.39 1192.35 1091.64 1192.88 1104.29C1193.41 1116.94 1194.5 1148.44 1195.31 1174.29C1196.11 1200.14 1197.01 1225.11 1197.3 1229.79C1197.59 1234.46 1198.29 1253.14 1198.85 1271.29C1199.85 1303.47 1202.35 1370.16 1205.32 1443.79C1206.13 1463.86 1207.03 1486.36 1207.33 1493.79C1207.62 1501.21 1208.52 1523.94 1209.33 1544.29C1210.13 1564.64 1211.28 1596.36 1211.87 1614.79C1212.46 1633.21 1213.32 1656.16 1213.79 1665.79C1214.25 1675.41 1214.34 1683.59 1213.98 1683.96C1213.62 1684.33 1204.04 1684.96 1192.68 1685.35L1172.04 1686.06L1171.41 1674.68C1171.07 1668.41 1170.34 1650.24 1169.8 1634.29C1169.26 1618.34 1168.37 1594.94 1167.82 1582.29C1165.78 1535.73 1162.85 1473.03 1162.3 1464.2C1161.99 1459.21 1161.74 1447.96 1161.75 1439.2C1161.77 1430.45 1161.13 1409.56 1160.34 1392.79C1158.57 1355.48 1157.25 1318.18 1155.29 1250.79C1153.12 1176.32 1150.13 1092.86 1148.38 1058.29C1145.23 995.842 1144.68 986.082 1143.88 978.633C1142.35 964.386 1135.07 953.414 1123.76 948.341C1116.07 944.889 1105.53 944.186 1083.05 945.625C1069.32 946.503 1065.96 947.045 1061.55 949.088C1053.61 952.766 1047.44 958.84 1043.37 966.966L1039.83 974.058V989.877C1039.83 998.577 1040.49 1021.13 1041.31 1039.99C1042.12 1058.86 1043.7 1097.91 1044.82 1126.79C1045.93 1155.66 1047.28 1189.86 1047.82 1202.79C1049.46 1241.93 1050.72 1276.4 1052.8 1338.79L1055.3 1413.79C1055.58 1422.31 1056.5 1447.74 1057.33 1470.29C1061.12 1572.93 1062.97 1620.83 1064.39 1653.19C1065.23 1672.39 1065.56 1688.45 1065.12 1688.89C1064.37 1689.64 1029.18 1691.7 1023.82 1691.31C1021.47 1691.14 1021.29 1690.7 1020.67 1683.71C1020.31 1679.63 1019.51 1660.54 1018.89 1641.29C1017.49 1597.51 1015.06 1526.65 1014.35 1508.79C1014.05 1501.36 1013.14 1476.84 1012.33 1454.29C1011.51 1431.74 1010.16 1397.09 1009.33 1377.29C1006.54 1311.09 1001.14 1173.23 1000.35 1148.29C1000.02 1137.84 998.604 1095.99 997.196 1055.29C995.789 1014.59 994.87 977.44 995.154 972.735C996.012 958.531 1000.57 948.67 1011.36 937.67C1018.55 930.342 1029.67 924.492 1039.48 922.873ZM534.238 995.85C534.974 973.933 535.896 955.485 536.285 954.855C536.776 954.061 539.963 953.869 546.66 954.231C551.976 954.518 563.976 954.99 573.326 955.279C582.676 955.569 604.276 956.478 621.326 957.299C638.376 958.121 660.796 959.184 671.148 959.663C681.5 960.142 690.329 960.928 690.768 961.411C691.206 961.894 692.318 976.689 693.239 994.289C696.22 1051.26 700.226 1104.22 705.378 1154.79C708.328 1183.75 712.862 1228.45 716.383 1263.29C717.772 1277.04 721.562 1309.89 724.805 1336.29C728.048 1362.69 731.475 1391.04 732.42 1399.29C733.366 1407.54 734.631 1414.62 735.232 1415.02C735.834 1415.43 739.841 1415.77 744.137 1415.77L751.947 1415.79L751.364 1409.04C750.812 1402.67 748.812 1376.2 745.374 1329.79C742.934 1296.86 737.722 1214.78 735.849 1179.79C735.304 1169.61 734.169 1145.99 733.327 1127.29C732.484 1108.59 731.348 1085.19 730.803 1075.29C729.336 1048.67 727.052 1000.78 726.284 980.539L725.611 962.789L735.469 962.792C740.89 962.794 756.126 963.27 769.326 963.851C782.526 964.431 806.469 965.46 822.534 966.138C838.598 966.816 851.93 967.578 852.161 967.83C852.87 968.607 850.049 1042.16 845.353 1145.29C841.345 1233.31 838.14 1311.74 832.338 1463.79C828.871 1554.63 822.494 1693.45 821.754 1694.19C821.357 1694.59 801.878 1693.88 729.826 1690.84C716.351 1690.27 697.337 1689.51 687.572 1689.15C677.038 1688.77 669.273 1688.05 668.479 1687.4C667.049 1686.21 666.8 1683.18 662.29 1611.79C656.422 1518.91 652.865 1478.51 642.875 1391.29C641.237 1376.99 638.516 1352.69 636.828 1337.29C632.534 1298.13 628.736 1267.55 625.18 1243.54L623.588 1232.79H607.826V1238.69C607.826 1241.93 608.934 1259.59 610.288 1277.94C611.643 1296.28 613.225 1319.16 613.804 1328.79C615.445 1356.07 617.634 1391.4 619.816 1425.79C626.168 1525.92 630.081 1604.46 631.436 1659.04L632.124 1686.79L625.225 1686.77C621.431 1686.76 609.326 1686.33 598.326 1685.81C587.326 1685.28 563.926 1684.39 546.326 1683.82C528.726 1683.24 512.347 1682.52 509.929 1682.2L505.531 1681.62L506.14 1661.46C506.475 1650.36 507.878 1617.44 509.258 1588.29C510.639 1559.14 512.231 1522.01 512.796 1505.79C513.362 1489.56 514.273 1466.84 514.823 1455.29C515.372 1443.74 516.266 1421.24 516.81 1405.29C518.404 1358.53 519.381 1334.35 524.833 1206.79C525.386 1193.86 526.499 1171.14 527.308 1156.29C528.117 1141.44 529.247 1115.79 529.82 1099.29C530.392 1082.79 531.319 1061.73 531.88 1052.49C532.44 1043.26 533.501 1017.77 534.238 995.85ZM1484.33 960.761C1503.03 959.634 1524.18 958.319 1531.33 957.837C1538.48 957.355 1551.08 957.084 1559.33 957.234C1572.5 957.474 1575.36 957.842 1582.83 960.252C1612.7 969.896 1632.68 989.324 1642.25 1018.01C1646.3 1030.16 1646.78 1035.94 1651.79 1132.29C1655.8 1209.54 1656.94 1237.07 1656.14 1237.81C1655.3 1238.58 1624.69 1240.7 1576.83 1243.28C1561.7 1244.1 1546.78 1245.03 1543.66 1245.37C1536.5 1246.13 1536.3 1245.79 1535.41 1231.29C1533.45 1199.47 1528.8 1148.68 1523.29 1098.79C1521.92 1086.41 1520.19 1069.85 1519.44 1061.97C1518.7 1054.1 1517.7 1047.28 1517.21 1046.83C1516.72 1046.38 1512.28 1046.29 1507.33 1046.65L1498.33 1047.29L1498.02 1103.79C1497.72 1157.48 1499.17 1255.66 1500.52 1273.69L1501.14 1282.08L1513.74 1281.42C1520.66 1281.05 1532.85 1280.32 1540.83 1279.79C1562.27 1278.37 1588.14 1278.57 1595.83 1280.22C1637.09 1289.06 1660.05 1317.21 1663.79 1363.54C1664.95 1377.84 1669.14 1451.88 1671.33 1496.79C1672.13 1513.01 1673.04 1529.89 1673.37 1534.29C1675.05 1556.86 1676.42 1601.1 1675.67 1608.73C1674.5 1620.69 1671.46 1630.81 1666.22 1640.22C1656.95 1656.87 1645.1 1668.28 1627.83 1677.18C1613.21 1684.71 1605.64 1686.06 1568.33 1687.78C1556.23 1688.34 1532.83 1689.52 1516.33 1690.39C1499.83 1691.27 1482.73 1691.72 1478.33 1691.4C1441.97 1688.73 1409.58 1660.27 1401.37 1623.79C1399.89 1617.23 1397.75 1587.15 1395.83 1545.79C1394.81 1523.85 1393.65 1502.4 1390.2 1441.5C1389.19 1423.71 1388.88 1411.37 1389.42 1410.87C1389.92 1410.41 1413.73 1408.85 1442.33 1407.42C1470.93 1405.98 1497.34 1404.58 1501.02 1404.3C1505.49 1403.96 1507.94 1404.17 1508.42 1404.94C1508.81 1405.57 1509.95 1418.06 1510.95 1432.69C1514.56 1485.65 1519.86 1541.1 1524.81 1577.85C1526.47 1590.15 1527.83 1600.8 1527.83 1601.51C1527.83 1602.9 1541.13 1603.35 1545.73 1602.12L1548.14 1601.47L1547.46 1528.88C1547.08 1488.96 1546.33 1445.71 1545.78 1432.79C1543.8 1385.78 1542.92 1367.55 1542.63 1367.29C1542.46 1367.14 1525 1367.92 1503.83 1369.03C1467.48 1370.92 1464.66 1370.94 1453.51 1369.39C1418.2 1364.49 1394.04 1342.3 1384.83 1306.31C1381.82 1294.55 1380.73 1278.94 1376.35 1185.79C1375.51 1167.91 1374.39 1146.99 1373.84 1139.29C1373.3 1131.59 1372.39 1115.84 1371.82 1104.29C1371.25 1092.74 1370.31 1075.46 1369.74 1065.9C1368.18 1039.92 1371.07 1023.76 1380.21 1007.44C1391.23 987.766 1412.75 970.656 1432.52 965.853C1442.9 963.331 1444.87 963.138 1484.33 960.761ZM1064.6 986.534C1068.26 980.063 1073.33 975.882 1079.54 974.211C1082.17 973.503 1089.28 972.903 1095.33 972.878C1108.54 972.824 1113.11 974.44 1117.71 980.786C1121.87 986.532 1122.53 991.168 1123.79 1023.79C1124.39 1039.46 1125.99 1078.84 1127.34 1111.29C1128.69 1143.74 1130.47 1190.76 1131.3 1215.79C1133.79 1291.23 1135.72 1347.98 1137.31 1392.79C1138.14 1416.16 1139.28 1448.11 1139.83 1463.79C1141.07 1498.8 1143.76 1566.09 1147.81 1663.23C1148.34 1675.85 1148.6 1686.35 1148.39 1686.56C1148.01 1686.94 1105.05 1688.7 1094.67 1688.76L1089.01 1688.79L1088.4 1679.54C1088.06 1674.45 1087.32 1658.14 1086.77 1643.29C1085.63 1613.04 1082.67 1537.49 1080.41 1480.79C1079.59 1460.16 1078.44 1425.96 1077.84 1404.79C1077.25 1383.61 1076.33 1355.26 1075.81 1341.79C1075.28 1328.31 1074.38 1299.96 1073.8 1278.79C1073.23 1257.61 1072.09 1225.89 1071.28 1208.29C1068.87 1156.06 1067.97 1134.4 1067.35 1113.79C1067.02 1103.06 1066.11 1081.69 1065.32 1066.29C1064.53 1050.89 1063.39 1027.81 1062.78 1015.01L1061.67 991.729L1064.6 986.534Z" fill="#0D4717"/>
<path d="M247.516 829.832C241.02 830.241 235.564 830.736 235.39 830.932C235.049 831.318 233.231 903.226 232.234 955.789C231.652 986.438 233.094 1102.93 234.406 1131.33L235.009 1144.37L244.667 1144.07C249.98 1143.9 261.253 1143.5 269.719 1143.17L285.113 1142.57L284.431 1128.43C283.609 1111.38 278.372 1022.34 276.306 990.289C273.508 946.877 269.023 896.448 263.765 849.289C261.65 830.317 261.359 828.699 260.107 828.938C259.678 829.02 254.011 829.423 247.516 829.832Z" fill="#0D4717"/>
<path d="M1921.41 832.039C1920.91 834.472 1920.67 836.59 1918.32 859.289C1914.76 893.553 1905.64 998.854 1902.38 1043.29C1900.48 1069.21 1896.52 1141.82 1896.99 1142.28C1897.66 1142.96 1945.33 1144.5 1946.06 1143.86C1947.15 1142.92 1949.65 1078.47 1950.93 1018.29C1952.01 967.623 1951.51 920.048 1949.16 850.115C1948.41 827.667 1950.11 829.823 1933.1 829.803C1922.25 829.789 1921.85 829.865 1921.41 832.039Z" fill="#0D4717"/>
<path fill-rule="evenodd" clip-rule="evenodd" d="M354.326 709.483C351.026 709.657 326.501 710.468 299.826 711.286C211.091 714.006 102.23 718.421 100.708 719.362C99.144 720.328 96.578 769.989 94.846 832.789C92.168 929.857 91.729 954.145 90.584 1068.29C89.24 1202.32 88.862 1693.16 90.102 1694.4C90.529 1694.83 104.479 1694.64 121.102 1693.98C137.725 1693.32 170.001 1692.12 192.826 1691.32C250.973 1689.26 252.851 1689.17 253.82 1688.18C254.309 1687.68 254.303 1678.35 253.806 1666.79C253.322 1655.51 252.441 1630.76 251.847 1611.79C251.254 1592.81 250.118 1560.86 249.323 1540.79C248.528 1520.71 247.62 1497.31 247.304 1488.79C246.988 1480.26 246.298 1463.39 245.771 1451.29C245.244 1439.19 244.143 1411.74 243.323 1390.29C242.503 1368.84 241.389 1340.26 240.847 1326.79C240.304 1313.31 239.74 1293.06 239.593 1281.79L239.326 1261.29L249.826 1260.65C255.601 1260.3 267.116 1259.69 275.416 1259.3L290.505 1258.59L291.176 1273.94C291.546 1282.38 292.504 1307.96 293.307 1330.79C294.109 1353.61 295.221 1383.99 295.778 1398.29C296.335 1412.59 297.029 1433.74 297.32 1445.29C297.612 1456.84 298.738 1489.91 299.822 1518.79C300.906 1547.66 302.471 1589.51 303.3 1611.79C305.005 1657.62 306.653 1685.95 307.677 1687.01C308.059 1687.41 317.586 1687.3 328.849 1686.76C340.111 1686.22 374.076 1684.89 404.326 1683.79C434.576 1682.69 462.198 1681.51 465.709 1681.16L472.092 1680.53L471.47 1672.91C471.128 1668.72 469.484 1647.29 467.818 1625.29C466.151 1603.29 463.681 1571.11 462.329 1553.79C460.003 1523.99 457.148 1484.34 454.842 1449.79C452.191 1410.09 448.454 1360.74 444.353 1311.29C441.889 1281.59 438.731 1242.21 437.335 1223.79C431.366 1145.04 429.538 1122.21 426.287 1085.79C424.397 1064.61 420.59 1020.96 417.828 988.789C410.739 906.233 409.475 893.067 402.755 831.789C394.522 756.712 391.479 731.776 388.203 712.539L387.564 708.789L373.945 708.978C366.455 709.082 357.626 709.309 354.326 709.483ZM235.39 830.932C235.564 830.736 241.02 830.241 247.516 829.832C254.011 829.423 259.678 829.02 260.107 828.938C261.359 828.699 261.65 830.317 263.765 849.289C269.023 896.448 273.508 946.877 276.306 990.289C278.372 1022.34 283.609 1111.38 284.431 1128.43L285.113 1142.57L269.719 1143.17C261.253 1143.5 249.98 1143.9 244.667 1144.07L235.009 1144.37L234.406 1131.33C233.094 1102.93 231.652 986.438 232.234 955.789C233.231 903.226 235.049 831.318 235.39 830.932Z" fill="#F9F6EF"/>
<path d="M536.285 954.855C535.896 955.485 534.974 973.933 534.238 995.85C533.501 1017.77 532.44 1043.26 531.88 1052.49C531.319 1061.73 530.392 1082.79 529.82 1099.29C529.247 1115.79 528.117 1141.44 527.308 1156.29C526.499 1171.14 525.386 1193.86 524.833 1206.79C519.381 1334.35 518.404 1358.53 516.81 1405.29C516.266 1421.24 515.372 1443.74 514.823 1455.29C514.273 1466.84 513.362 1489.56 512.796 1505.79C512.231 1522.01 510.639 1559.14 509.258 1588.29C507.878 1617.44 506.475 1650.36 506.14 1661.46L505.531 1681.62L509.929 1682.2C512.347 1682.52 528.726 1683.24 546.326 1683.82C563.926 1684.39 587.326 1685.28 598.326 1685.81C609.326 1686.33 621.431 1686.76 625.225 1686.77L632.124 1686.79L631.436 1659.04C630.081 1604.46 626.168 1525.92 619.816 1425.79C617.634 1391.4 615.445 1356.07 613.804 1328.79C613.225 1319.16 611.643 1296.28 610.288 1277.94C608.934 1259.59 607.826 1241.93 607.826 1238.69V1232.79H623.588L625.18 1243.54C628.736 1267.55 632.534 1298.13 636.828 1337.29C638.516 1352.69 641.237 1376.99 642.875 1391.29C652.865 1478.51 656.422 1518.91 662.29 1611.79C666.8 1683.18 667.049 1686.21 668.479 1687.4C669.273 1688.05 677.038 1688.77 687.572 1689.15C697.337 1689.51 716.351 1690.27 729.826 1690.84C801.878 1693.88 821.357 1694.59 821.754 1694.19C822.494 1693.45 828.871 1554.63 832.338 1463.79C838.14 1311.74 841.345 1233.31 845.353 1145.29C850.049 1042.16 852.87 968.607 852.161 967.83C851.93 967.578 838.598 966.816 822.534 966.138C806.469 965.46 782.526 964.431 769.326 963.851C756.126 963.27 740.89 962.794 735.469 962.792L725.611 962.789L726.284 980.539C727.052 1000.78 729.336 1048.67 730.803 1075.29C731.348 1085.19 732.484 1108.59 733.327 1127.29C734.169 1145.99 735.304 1169.61 735.849 1179.79C737.722 1214.78 742.934 1296.86 745.374 1329.79C748.812 1376.2 750.812 1402.67 751.364 1409.04L751.947 1415.79L744.137 1415.77C739.841 1415.77 735.834 1415.43 735.232 1415.02C734.631 1414.62 733.366 1407.54 732.42 1399.29C731.475 1391.04 728.048 1362.69 724.805 1336.29C721.562 1309.89 717.772 1277.04 716.383 1263.29C712.862 1228.45 708.328 1183.75 705.378 1154.79C700.226 1104.22 696.22 1051.26 693.239 994.289C692.318 976.689 691.206 961.894 690.768 961.411C690.329 960.928 681.5 960.142 671.148 959.663C660.796 959.184 638.376 958.121 621.326 957.299C604.276 956.478 582.676 955.569 573.326 955.279C563.976 954.99 551.976 954.518 546.66 954.231C539.963 953.869 536.776 954.061 536.285 954.855Z" fill="#F9F6EF"/>
<path d="M1079.54 974.211C1073.33 975.882 1068.26 980.063 1064.6 986.534L1061.67 991.729L1062.78 1015.01C1063.39 1027.81 1064.53 1050.89 1065.32 1066.29C1066.11 1081.69 1067.02 1103.06 1067.35 1113.79C1067.97 1134.4 1068.87 1156.06 1071.28 1208.29C1072.09 1225.89 1073.23 1257.61 1073.8 1278.79C1074.38 1299.96 1075.28 1328.31 1075.81 1341.79C1076.33 1355.26 1077.25 1383.61 1077.84 1404.79C1078.44 1425.96 1079.59 1460.16 1080.41 1480.79C1082.67 1537.49 1085.63 1613.04 1086.77 1643.29C1087.32 1658.14 1088.06 1674.45 1088.4 1679.54L1089.01 1688.79L1094.67 1688.76C1105.05 1688.7 1148.01 1686.94 1148.39 1686.56C1148.6 1686.35 1148.34 1675.85 1147.81 1663.23C1143.76 1566.09 1141.07 1498.8 1139.83 1463.79C1139.28 1448.11 1138.14 1416.16 1137.31 1392.79C1135.72 1347.98 1133.79 1291.23 1131.3 1215.79C1130.47 1190.76 1128.69 1143.74 1127.34 1111.29C1125.99 1078.84 1124.39 1039.46 1123.79 1023.79C1122.53 991.168 1121.87 986.532 1117.71 980.786C1113.11 974.44 1108.54 972.824 1095.33 972.878C1089.28 972.903 1082.17 973.503 1079.54 974.211Z" fill="#F9F6EF"/>
<path d="M1078.33 920.408C1060.73 921.143 1043.25 922.252 1039.48 922.873C1029.67 924.492 1018.55 930.342 1011.36 937.67C1000.57 948.67 996.012 958.531 995.154 972.735C994.87 977.44 995.789 1014.59 997.196 1055.29C998.604 1095.99 1000.02 1137.84 1000.35 1148.29C1001.14 1173.23 1006.54 1311.09 1009.33 1377.29C1010.16 1397.09 1011.51 1431.74 1012.33 1454.29C1013.14 1476.84 1014.05 1501.36 1014.35 1508.79C1015.06 1526.65 1017.49 1597.51 1018.89 1641.29C1019.51 1660.54 1020.31 1679.63 1020.67 1683.71C1021.29 1690.7 1021.47 1691.14 1023.82 1691.31C1029.18 1691.7 1064.37 1689.64 1065.12 1688.89C1065.56 1688.45 1065.23 1672.39 1064.39 1653.19C1062.97 1620.83 1061.12 1572.93 1057.33 1470.29C1056.5 1447.74 1055.58 1422.31 1055.3 1413.79L1052.8 1338.79C1050.72 1276.4 1049.46 1241.93 1047.82 1202.79C1047.28 1189.86 1045.93 1155.66 1044.82 1126.79C1043.7 1097.91 1042.12 1058.86 1041.31 1039.99C1040.49 1021.13 1039.83 998.577 1039.83 989.877V974.058L1043.37 966.966C1047.44 958.84 1053.61 952.766 1061.55 949.088C1065.96 947.045 1069.32 946.503 1083.05 945.625C1105.53 944.186 1116.07 944.889 1123.76 948.341C1135.07 953.414 1142.35 964.386 1143.88 978.633C1144.68 986.082 1145.23 995.842 1148.38 1058.29C1150.13 1092.86 1153.12 1176.32 1155.29 1250.79C1157.25 1318.18 1158.57 1355.48 1160.34 1392.79C1161.13 1409.56 1161.77 1430.45 1161.75 1439.2C1161.74 1447.96 1161.99 1459.21 1162.3 1464.2C1162.85 1473.03 1165.78 1535.73 1167.82 1582.29C1168.37 1594.94 1169.26 1618.34 1169.8 1634.29C1170.34 1650.24 1171.07 1668.41 1171.41 1674.68L1172.04 1686.06L1192.68 1685.35C1204.04 1684.96 1213.62 1684.33 1213.98 1683.96C1214.34 1683.59 1214.25 1675.41 1213.79 1665.79C1213.32 1656.16 1212.46 1633.21 1211.87 1614.79C1211.28 1596.36 1210.13 1564.64 1209.33 1544.29C1208.52 1523.94 1207.62 1501.21 1207.33 1493.79C1207.03 1486.36 1206.13 1463.86 1205.32 1443.79C1202.35 1370.16 1199.85 1303.47 1198.85 1271.29C1198.29 1253.14 1197.59 1234.46 1197.3 1229.79C1197.01 1225.11 1196.11 1200.14 1195.31 1174.29C1194.5 1148.44 1193.41 1116.94 1192.88 1104.29C1192.35 1091.64 1191.65 1071.39 1191.32 1059.29C1190.03 1010.87 1187.77 966.991 1186.28 961.141C1181.27 941.511 1165.76 925.58 1146.83 920.61C1138.92 918.534 1124.29 918.491 1078.33 920.408Z" fill="#F9F6EF"/>
<path d="M1577.83 694.273C1558.3 694.998 1530.63 696.104 1516.33 696.73C1459.49 699.22 1349.23 703.445 1267.83 706.251C1243.35 707.094 1211.4 708.24 1196.83 708.797C1182.25 709.353 1149.85 710.474 1124.83 711.288C1069.09 713.099 1009.1 715.296 961.326 717.274C892.047 720.143 791.083 724.025 740.326 725.771C723.276 726.358 691.101 727.499 668.826 728.308C646.551 729.116 613.476 730.258 595.326 730.844C533.163 732.854 522.555 733.436 518.72 735.05C514.046 737.016 507.464 743.908 504.72 749.709C502.638 754.112 502.58 755.094 503.23 775.113C503.602 786.566 504.538 806.591 505.311 819.613C506.084 832.635 506.989 850.939 507.322 860.289C508.007 879.515 508.947 884.496 513.022 890.511C516.095 895.045 522.9 900.267 527.115 901.325C528.542 901.684 539.524 901.478 551.518 900.868C586.967 899.065 683.928 895.18 752.326 892.821C812.182 890.756 866.478 888.813 882.025 888.178L897.725 887.538L898.219 889.913C898.49 891.22 898.981 903.539 899.309 917.289C899.637 931.039 900.333 952.189 900.856 964.289C901.38 976.389 902.489 1004.51 903.321 1026.79C904.153 1049.06 905.27 1076.51 905.802 1087.79C906.334 1099.06 907.229 1122.46 907.791 1139.79C908.353 1157.11 909.041 1173.99 909.321 1177.29C909.774 1182.63 911.817 1239.06 914.806 1328.79C915.364 1345.56 916.295 1373.01 916.875 1389.79C917.454 1406.56 918.124 1427.04 918.364 1435.29C919.67 1480.19 920.88 1514.99 921.321 1520.29C921.596 1523.59 922.494 1546.99 923.318 1572.29C924.142 1597.59 925.04 1619.86 925.312 1621.79C925.584 1623.71 926.511 1640.59 927.37 1659.29C928.23 1677.99 929.31 1693.67 929.77 1694.13C930.668 1695.03 979.401 1693.17 981.016 1692.17C981.554 1691.84 981.731 1689.51 981.414 1686.93C981.101 1684.38 980.383 1668.79 979.818 1652.29C979.254 1635.79 978.13 1604.06 977.321 1581.79C976.513 1559.51 975.398 1525.76 974.844 1506.79C974.29 1487.81 973.607 1468.91 973.325 1464.79C973.044 1460.66 972.366 1442.89 971.819 1425.29C970.837 1393.72 968.717 1336.63 966.823 1290.79C966.289 1277.86 965.18 1249.74 964.358 1228.29C963.536 1206.84 962.403 1178.71 961.84 1165.79C961.277 1152.86 960.141 1121.81 959.315 1096.79C958.489 1071.76 957.364 1041.84 956.816 1030.29C955.159 995.373 955.294 965.436 957.147 957.174C959.558 946.419 963.025 938.062 969.255 927.991C983.956 904.226 1005.15 889.409 1031.63 884.386C1042.49 882.326 1108.62 879.472 1131.83 880.062C1147.11 880.45 1151.63 880.92 1157.83 882.761C1187.87 891.69 1210.68 912.573 1220.73 940.327C1225.82 954.399 1226.63 960.902 1228.29 1001.29C1229.16 1022.19 1230.3 1049.41 1230.82 1061.79C1231.35 1074.16 1232.25 1098.69 1232.82 1116.29C1233.39 1133.89 1234.97 1179.79 1236.31 1218.29C1237.66 1256.79 1239.23 1304.04 1239.81 1323.29C1240.39 1342.54 1241.52 1373.81 1242.32 1392.79C1243.11 1411.76 1244.01 1433.81 1244.31 1441.79C1244.6 1449.76 1245.5 1471.81 1246.3 1490.79C1247.11 1509.76 1248.46 1543.06 1249.32 1564.79C1250.17 1586.51 1251.54 1620.4 1252.35 1640.1C1253.16 1659.8 1253.83 1677.53 1253.83 1679.51V1683.1L1274.58 1682.42C1285.99 1682.05 1298.41 1681.46 1302.17 1681.11L1309.01 1680.49L1308.39 1668.39C1307.64 1653.77 1304.18 1567.41 1303.34 1542.29C1303.01 1532.39 1302.31 1515.06 1301.79 1503.79C1301.27 1492.51 1300.38 1469.34 1299.82 1452.29C1299.25 1435.24 1298.15 1403.96 1297.36 1382.79C1296.57 1361.61 1295.66 1335.06 1295.34 1323.79C1295.02 1312.51 1294.32 1292.49 1293.8 1279.29C1293.28 1266.09 1292.39 1241.11 1291.83 1223.79C1290.83 1193.1 1288.8 1138.81 1286.83 1090.29C1286.29 1077.09 1285.18 1048.51 1284.35 1026.79C1283.51 1005.06 1282.39 977.389 1281.84 965.289C1280 924.424 1278.55 874.727 1279.19 874.089C1279.85 873.431 1299.3 872.407 1330.33 871.397C1419.39 868.499 1449.41 867.477 1495.83 865.767C1525.25 864.683 1562.15 863.33 1577.83 862.759C1613.39 861.465 1629.97 860.182 1634.11 858.407C1638.33 856.599 1643.47 851.4 1646.06 846.342C1648.04 842.454 1648.1 841.269 1647.5 817.289C1646.84 791.395 1644.25 727.979 1643.39 717.067C1642.66 707.69 1637.6 699.246 1630.57 695.658C1625.16 692.901 1619.08 692.741 1577.83 694.273Z" fill="#F9F6EF"/>
<path fill-rule="evenodd" clip-rule="evenodd" d="M1796.32 708.804C1795.47 710.176 1790.21 745.657 1786.38 775.789C1781.72 812.552 1778.98 839.315 1771.83 917.789C1770.7 930.164 1768.67 951.089 1767.31 964.289C1763.75 998.936 1760.35 1036.82 1756.84 1080.79C1752.32 1137.42 1749.18 1174.65 1745.33 1217.29C1742.11 1252.87 1741.03 1266.5 1735.83 1336.79C1733.03 1374.56 1729.08 1424.86 1727.3 1445.29C1723.35 1490.57 1719.72 1538.29 1715.35 1602.29C1714.52 1614.39 1712.89 1636.59 1711.71 1651.62C1710.5 1667.16 1709.96 1679.3 1710.45 1679.78C1710.93 1680.24 1722.35 1681.11 1735.83 1681.71C1768.6 1683.17 1828.3 1685.58 1849.33 1686.29C1858.68 1686.61 1867.68 1687.07 1869.33 1687.31C1870.98 1687.56 1872.86 1687.42 1873.51 1687C1874.34 1686.48 1875.03 1677.71 1875.79 1658.27C1880.97 1525.32 1880.87 1527.69 1886.3 1404.29C1887.09 1386.14 1888.47 1353.51 1889.35 1331.79C1890.23 1310.06 1891.26 1284.86 1891.64 1275.79L1892.33 1259.29L1904.83 1259.62C1920.36 1260.04 1942.76 1261.39 1943.32 1261.95C1943.84 1262.47 1941.23 1334.69 1939.88 1356.79C1938.31 1382.52 1936.95 1415.05 1936.35 1441.29C1936.04 1454.49 1935.57 1468.44 1935.3 1472.29C1935.03 1476.14 1934.36 1493.46 1933.82 1510.79C1932.42 1555.49 1928.84 1638.96 1926.91 1672.29C1926.46 1679.99 1926.29 1686.82 1926.54 1687.46C1927.1 1688.95 1933.9 1689.45 1972.33 1690.8C2003.23 1691.88 2056.44 1694.17 2079.45 1695.41L2091.57 1696.07L2092.3 1624.18C2092.71 1584.64 2093.05 1455.54 2093.06 1337.29C2093.09 1012.11 2090.74 835.313 2085.31 754.289C2083.05 720.467 2082.96 719.842 2080.46 719.341C2076.98 718.645 1920.04 712.201 1848.33 709.81C1831.28 709.241 1812.77 708.504 1807.2 708.172C1799.7 707.724 1796.88 707.887 1796.32 708.804ZM1918.32 859.289C1920.67 836.59 1920.91 834.472 1921.41 832.039C1921.85 829.865 1922.25 829.789 1933.1 829.803C1950.11 829.823 1948.41 827.667 1949.16 850.115C1951.51 920.048 1952.01 967.623 1950.93 1018.29C1949.65 1078.47 1947.15 1142.92 1946.06 1143.86C1945.33 1144.5 1897.66 1142.96 1896.99 1142.28C1896.52 1141.82 1900.48 1069.21 1902.38 1043.29C1905.64 998.854 1914.76 893.553 1918.32 859.289Z" fill="#F9F6EF"/>
<path d="M1531.33 957.837C1524.18 958.319 1503.03 959.634 1484.33 960.761C1444.87 963.138 1442.9 963.331 1432.52 965.853C1412.75 970.656 1391.23 987.766 1380.21 1007.44C1371.07 1023.76 1368.18 1039.92 1369.74 1065.9C1370.31 1075.46 1371.25 1092.74 1371.82 1104.29C1372.39 1115.84 1373.3 1131.59 1373.84 1139.29C1374.39 1146.99 1375.51 1167.91 1376.35 1185.79C1380.73 1278.94 1381.82 1294.55 1384.83 1306.31C1394.04 1342.3 1418.2 1364.49 1453.51 1369.39C1464.66 1370.94 1467.48 1370.92 1503.83 1369.03C1525 1367.92 1542.46 1367.14 1542.63 1367.29C1542.92 1367.55 1543.8 1385.78 1545.78 1432.79C1546.33 1445.71 1547.08 1488.96 1547.46 1528.88L1548.14 1601.47L1545.73 1602.12C1541.13 1603.35 1527.83 1602.9 1527.83 1601.51C1527.83 1600.8 1526.47 1590.15 1524.81 1577.85C1519.86 1541.1 1514.56 1485.65 1510.95 1432.69C1509.95 1418.06 1508.81 1405.57 1508.42 1404.94C1507.94 1404.17 1505.49 1403.96 1501.02 1404.3C1497.34 1404.58 1470.93 1405.98 1442.33 1407.42C1413.73 1408.85 1389.92 1410.41 1389.42 1410.87C1388.88 1411.37 1389.19 1423.71 1390.2 1441.5C1393.65 1502.4 1394.81 1523.85 1395.83 1545.79C1397.75 1587.15 1399.89 1617.23 1401.37 1623.79C1409.58 1660.27 1441.97 1688.73 1478.33 1691.4C1482.73 1691.72 1499.83 1691.27 1516.33 1690.39C1532.83 1689.52 1556.23 1688.34 1568.33 1687.78C1605.64 1686.06 1613.21 1684.71 1627.83 1677.18C1645.1 1668.28 1656.95 1656.87 1666.22 1640.22C1671.46 1630.81 1674.5 1620.69 1675.67 1608.73C1676.42 1601.1 1675.05 1556.86 1673.37 1534.29C1673.04 1529.89 1672.13 1513.01 1671.33 1496.79C1669.14 1451.88 1664.95 1377.84 1663.79 1363.54C1660.05 1317.21 1637.09 1289.06 1595.83 1280.22C1588.14 1278.57 1562.27 1278.37 1540.83 1279.79C1532.85 1280.32 1520.66 1281.05 1513.74 1281.42L1501.14 1282.08L1500.52 1273.69C1499.17 1255.66 1497.72 1157.48 1498.02 1103.79L1498.33 1047.29L1507.33 1046.65C1512.28 1046.29 1516.72 1046.38 1517.21 1046.83C1517.7 1047.28 1518.7 1054.1 1519.44 1061.97C1520.19 1069.85 1521.92 1086.41 1523.29 1098.79C1528.8 1148.68 1533.45 1199.47 1535.41 1231.29C1536.3 1245.79 1536.5 1246.13 1543.66 1245.37C1546.78 1245.03 1561.7 1244.1 1576.83 1243.28C1624.69 1240.7 1655.3 1238.58 1656.14 1237.81C1656.94 1237.07 1655.8 1209.54 1651.79 1132.29C1646.78 1035.94 1646.3 1030.16 1642.25 1018.01C1632.68 989.324 1612.7 969.896 1582.83 960.252C1575.36 957.842 1572.5 957.474 1559.33 957.234C1551.08 957.084 1538.48 957.355 1531.33 957.837Z" fill="#F9F6EF"/>
<path d="M128.906 68.21C122.071 70.162 119.593 71.34 116.056 74.316C108.608 80.583 107.602 87.291 110.359 112.289C111.148 119.439 112.277 130.914 112.869 137.789C113.461 144.664 114.605 157.039 115.411 165.289C115.765 168.91 116.348 174.885 117.03 181.869L117.082 182.405C117.942 191.219 118.952 201.564 119.852 210.789C121.489 227.564 124.432 259.739 126.391 282.289C130.844 333.529 133.878 366.308 138.887 417.289C141.049 439.289 143.978 470.339 145.396 486.289C146.815 502.239 148.66 522.714 149.496 531.789C150.333 540.864 152.985 569.768 155.391 596.021C157.369 617.603 159.243 636.27 160.039 642.539H195.349C195.281 640.912 195.099 638.658 194.826 636.271C194.325 631.881 192.785 615.239 191.404 599.289C188.733 568.448 186.192 541.104 182.901 507.789C179.084 469.161 175.871 435.281 174.412 418.289C172.924 400.959 166.048 324.845 163.436 296.789C162.642 288.264 161.75 279.489 161.453 277.289C161.157 275.089 160.006 263.389 158.898 251.289C154.855 207.178 150.914 163.636 148.398 135.289C146.982 119.339 144.943 97.637 143.865 87.062C142.788 76.487 141.906 67.599 141.906 67.312C141.906 66.333 133.422 66.919 128.906 68.21Z" fill="#F9F6EF"/>
<path d="M171.406 63.947C166.456 64.431 159.256 65.156 155.406 65.558L148.406 66.289L148.649 71.289C149.009 78.706 154.577 140.666 157.411 168.789C160.222 196.69 161.498 210.392 166.441 265.789C171.737 325.128 175.63 366.994 178.902 399.789C181.969 430.532 185.523 468.681 188.878 506.882C191.789 540.03 194.75 572.893 195.898 584.789C196.455 590.564 197.374 600.239 197.94 606.289C199.417 622.082 201.084 636.912 201.973 642.539H236.907C236.907 640.751 235.79 626.914 234.424 611.789C233.058 596.664 230.588 568.989 228.934 550.289C227.281 531.589 225.267 509.764 224.46 501.789C220.603 463.683 214.698 401.36 212.428 374.789C211.041 358.564 209.447 340.564 208.885 334.789C208.323 329.014 206.266 307.414 204.314 286.789C202.361 266.164 199.893 240.514 198.828 229.789C197.764 219.064 196.221 202.414 195.399 192.789C194.577 183.164 192.571 160.664 190.941 142.789C189.31 124.914 187.042 99.978 185.899 87.375C184.757 74.773 183.589 64.085 183.305 63.625C183.021 63.165 182.252 62.851 181.597 62.927C180.942 63.003 176.356 63.462 171.406 63.947Z" fill="#F9F6EF"/>
<path d="M190.628 62.39C190.201 62.823 190.086 65.678 190.374 68.733C190.662 71.789 191.596 82.614 192.45 92.789C194.487 117.059 198.612 160.928 200.394 177.289C201.173 184.439 203.185 205.814 204.864 224.789C206.544 243.764 208.6 266.714 209.434 275.789C210.267 284.864 211.852 302.639 212.955 315.289C214.058 327.939 216.737 356.289 218.907 378.289C221.078 400.289 224.46 436.289 226.422 458.289C231.467 514.84 234.609 549.171 236.857 572.289C237.927 583.289 239.726 602.189 240.855 614.289C241.984 626.389 243.245 638.314 243.657 640.789L243.949 642.539H280.879L280.589 639.562C280.253 636.112 279.298 626.539 278.467 618.289C275.766 591.464 270.884 538.048 267.912 502.789C266.776 489.314 264.965 469.289 263.885 458.289C262.805 447.289 261.026 429.064 259.933 417.789C258.841 406.514 256.83 385.814 255.466 371.789C254.101 357.764 252.058 335.264 250.924 321.789C248.36 291.304 243.142 235.723 236.42 167.289C235.61 159.039 233.804 139.689 232.408 124.289C228.329 79.304 228.156 77.936 225.946 73.371C224.71 70.817 221.987 67.746 219.145 65.701C214.506 62.361 214.163 62.282 202.906 61.946C196.581 61.757 191.056 61.957 190.628 62.39Z" fill="#F9F6EF"/>
<path d="M492.075 163.392C483.012 167.909 480.682 172.343 472.888 199.92C470.032 210.023 464.621 228.639 460.863 241.289C457.105 253.939 450.573 276.214 446.347 290.789C434.771 330.718 421.957 374.683 412.974 405.289C406.121 428.636 394.033 470.037 385.383 499.789C382.265 510.514 378.231 524.239 376.419 530.289C372.116 544.654 368.7 556.397 365.945 566.289C364.719 570.689 361.999 579.914 359.902 586.789C357.805 593.664 354.882 603.564 353.406 608.789C351.93 614.014 348.965 623.965 346.815 630.902C345.346 635.643 344.059 640.035 343.392 642.539H380.179C381.107 639.586 383.463 631.265 385.904 622.289C388.745 611.839 392.135 599.689 393.438 595.289C394.738 590.889 400.756 570.189 406.81 549.289C418.882 507.61 427.644 477.708 437.432 444.789C440.948 432.964 446.34 414.514 449.414 403.789C452.488 393.064 456.981 377.764 459.396 369.789C461.81 361.814 465.198 350.114 466.925 343.789C468.652 337.464 473.358 321.264 477.383 307.789C481.409 294.314 487.5 273.389 490.917 261.289C494.335 249.189 498.685 234.339 500.584 228.289C506.449 209.61 517.906 168.986 517.906 166.871C517.906 164.815 516.677 164.302 505.906 161.859C499.3 160.36 497.834 160.523 492.075 163.392Z" fill="#F9F6EF"/>
<path d="M521.613 179.539C519.618 186.001 514.184 204.564 509.54 220.789C500.066 253.884 497.53 262.593 484.928 305.289C466.213 368.7 463.449 378.153 455.273 406.73C450.64 422.922 444.865 442.722 442.44 450.73C440.015 458.737 435.041 475.639 431.386 488.289C427.731 500.939 420.324 526.589 414.925 545.289C409.526 563.989 400.789 593.587 395.508 611.063C391.186 625.363 387.508 637.981 386.314 642.539H423.748L424.3 640.539C428.836 624.119 440.846 582.048 446.925 561.289C450.79 548.089 458.458 521.539 463.964 502.289C469.469 483.039 476.635 458.514 479.888 447.789C487.229 423.584 497.534 388.331 508.536 349.789C513.168 333.564 517.809 317.589 518.85 314.289C519.892 310.989 522.624 301.764 524.919 293.789C527.215 285.814 533.288 265.114 538.417 247.789C548.662 213.179 558.07 180.07 558.275 177.897C558.348 177.131 557.281 176.166 555.906 175.753C544.258 172.252 527.894 167.789 526.704 167.789C525.708 167.789 524.083 171.542 521.613 179.539Z" fill="#F9F6EF"/>
<path d="M561.504 192.539C559.39 199.551 555.895 211.364 553.737 218.789L551.478 226.559L551.059 228L550.379 230.342L550.325 230.528L546.421 243.959L543.274 254.789C539.678 267.164 534.786 284.039 532.404 292.289C526.211 313.735 513.278 357.879 510.43 367.289C507.796 375.99 503.753 389.841 495.253 419.289C484.133 457.812 478.606 476.683 473.724 492.789C470.974 501.864 462.956 529.314 455.906 553.789C448.856 578.264 439.925 608.615 436.06 621.235C433.241 630.44 430.914 638.616 429.967 642.539H468.762L469.323 640.539C470.132 637.651 473.319 626.514 476.404 615.789C491.31 563.954 497.344 543.267 500.904 531.789C503.037 524.914 507.692 508.939 511.248 496.289C514.804 483.639 520.863 462.714 524.713 449.789C528.563 436.864 535.634 412.789 540.427 396.289C545.221 379.789 553.326 352.114 558.437 334.789C563.549 317.464 570.75 292.939 574.44 280.289C578.13 267.639 583.129 250.539 585.55 242.289C595.246 209.24 596.457 201.858 593.281 195.164C590.502 189.307 583.886 184.382 575.545 181.958C571.439 180.765 567.465 179.789 566.713 179.789C565.831 179.789 563.987 184.303 561.504 192.539Z" fill="#F9F6EF"/>
<path d="M695.906 44.744C691.776 46.163 689.114 48.018 685.221 52.189C678.39 59.506 678.016 62.125 680.8 83.118C681.98 92.012 684.499 113.464 686.399 130.789C690.907 171.903 693.948 197.558 699.378 240.289C703.434 272.213 706.482 298.173 713.467 360.289C714.827 372.389 717.276 392.864 718.906 405.789C720.537 418.714 724.594 453.814 727.922 483.789C731.251 513.764 735.97 554.489 738.411 574.289C740.852 594.089 743.538 616.814 744.38 624.789C745.221 632.764 746.155 640.751 746.453 642.539H781.731L781.525 641.039C778.903 622.002 775.277 591.762 770.942 552.789C768.159 527.764 765.224 501.889 764.422 495.289C764.085 492.515 763.61 488.602 763.087 484.303C762.366 478.373 761.556 471.709 760.897 466.289C759.76 456.939 757.955 442.314 756.885 433.789C755.815 425.264 753.354 403.664 751.416 385.789C747.571 350.314 744.654 325.246 739.375 282.289C737.482 266.889 735.508 250.239 734.987 245.289C731.1 208.302 725.345 157.649 720.902 121.289C719.016 105.86 716.745 87.058 713.367 58.933C712.485 51.587 711.521 44.95 711.227 44.183C710.455 42.172 702.549 42.462 695.906 44.744Z" fill="#F9F6EF"/>
<path d="M743.906 38.488C737.187 39.216 718.529 41.834 718.279 42.084C718.141 42.222 719.117 51.775 720.448 63.312C721.78 74.849 725.363 106.564 728.411 133.789C731.459 161.014 735.987 200.164 738.474 220.789C743.594 263.253 746.295 286.218 748.473 305.789C751.796 335.646 755.462 366.967 759.917 403.541C761.04 412.752 763.737 436.264 765.913 455.789C768.088 475.314 770.563 497.364 771.413 504.789C772.98 518.475 773.487 522.682 778.948 567.289C780.632 581.039 783.316 603.887 784.913 618.063C786.124 628.811 787.325 638.33 787.979 642.539H823.719C823.963 640.685 823.509 637.824 822.811 633.425L822.81 633.42C822.545 631.753 822.246 629.866 821.937 627.73C819.62 611.739 815.677 578.643 809.438 522.789C806.948 500.514 804.047 475.089 802.99 466.289C798.874 432.028 794.745 396.663 790.438 358.789C785.629 316.5 782.248 287.537 778.937 260.289C776.69 241.793 773.2 211.174 769.931 181.289C767.928 162.968 764.603 134.896 761.344 108.789C759.971 97.788 752.928 38.693 752.912 38.039C752.905 37.748 748.896 37.948 743.906 38.488Z" fill="#F9F6EF"/>
<path d="M766.406 35.698C763.656 36.042 760.912 36.639 760.307 37.023C759.511 37.529 759.562 40.29 760.49 47.005C761.891 57.146 766.878 100.469 769.387 124.289C771.011 139.713 772.937 156.119 779.834 213.289C784.344 250.672 786.408 268.69 791.402 314.289C793.33 331.889 796.712 360.914 798.917 378.789C801.123 396.664 804.482 425.239 806.38 442.289C808.278 459.339 810.286 477.114 810.842 481.789C811.398 486.464 812.774 498.164 813.901 507.789C815.926 525.085 817.982 542.146 821.79 573.289C822.866 582.089 824.713 598.739 825.895 610.289C827.077 621.839 828.575 634.439 829.224 638.289L829.942 642.539H867.103C866.982 639.686 866.513 634.739 865.816 629.289C861.853 598.338 854.872 540.789 853.441 527.289C850.395 498.546 843.651 440.449 837.48 389.789C835.571 374.114 832.845 350.489 831.423 337.289C826.674 293.219 824.872 277.534 820.391 241.289C817.942 221.489 813.902 187.064 811.413 164.789L810.876 159.979C799.707 60.0013 798.998 53.6571 796.152 48.4899C795.96 48.1412 795.758 47.7979 795.543 47.4315L795.54 47.4272L795.387 47.167C794.044 44.875 791.475 41.759 789.677 40.243C783.419 34.966 779.047 34.112 766.406 35.698Z" fill="#F9F6EF"/>
<path d="M1426.81 164.712C1417.46 170.588 1416.35 173.154 1408.83 206.289C1406.59 216.189 1402.34 234.639 1399.4 247.289C1396.45 259.939 1391.51 281.764 1388.41 295.789C1385.31 309.814 1380.97 328.939 1378.78 338.289C1376.58 347.639 1371.46 370.139 1367.41 388.289C1363.35 406.439 1358.64 427.094 1356.95 434.19C1355.25 441.285 1351.42 458.16 1348.43 471.69C1345.45 485.219 1341.62 502.05 1339.93 509.091C1337.13 520.767 1330.3 550.915 1322.89 584.289C1321.31 591.439 1317.51 607.639 1314.46 620.289C1312.12 630.013 1310.1 638.715 1309.29 642.539H1347.89L1348.57 638.789C1349.23 635.214 1352.07 622.164 1354.89 609.789C1357.71 597.414 1364.01 569.514 1368.88 547.789C1373.76 526.064 1378.93 503.339 1380.37 497.289C1381.82 491.239 1385.68 474.139 1388.97 459.289C1392.25 444.439 1397.16 422.839 1399.89 411.289C1402.61 399.739 1406.91 381.064 1409.42 369.789C1411.94 358.514 1416.01 340.696 1418.46 330.193C1420.91 319.69 1425.8 298.09 1429.34 282.193C1432.87 266.296 1437.58 245.639 1439.79 236.289C1447.12 205.324 1455.07 167.661 1454.56 166.333C1454.07 165.058 1439.04 161.763 1433.91 161.806C1432.53 161.818 1429.34 163.125 1426.81 164.712Z" fill="#F9F6EF"/>
<path d="M1459.53 178.539C1456.73 190.083 1445.06 241.242 1434.5 288.289C1430.92 304.239 1426.9 322.014 1425.57 327.789L1417.58 362.289C1412.11 385.929 1399.24 442.82 1388.51 490.789C1385.49 504.264 1381.2 523.164 1378.96 532.789C1376.73 542.414 1372.19 562.214 1368.87 576.789C1365.56 591.364 1360.68 612.514 1358.03 623.789C1356.15 631.784 1354.61 638.918 1353.95 642.539H1390.47L1391.43 638.039C1392.35 633.776 1395.56 619.489 1398.58 606.289C1401.6 593.089 1406.71 570.364 1409.95 555.789C1413.18 541.214 1418.78 516.464 1422.38 500.789C1425.98 485.114 1430.07 467.114 1431.47 460.789C1432.86 454.464 1434.86 445.689 1435.91 441.289C1436.95 436.889 1441.44 417.089 1445.88 397.289C1450.32 377.489 1456.4 350.939 1459.38 338.289C1462.37 325.639 1466.87 305.839 1469.4 294.289C1471.92 282.739 1474.63 270.589 1475.42 267.289C1476.2 263.989 1478.63 253.851 1480.81 244.76C1485.29 226.041 1495.91 177.673 1495.91 175.98C1495.91 175.367 1493.99 174.349 1491.66 173.716C1485.75 172.118 1465.2 167.789 1463.52 167.789C1462.59 167.789 1461.28 171.317 1459.53 178.539Z" fill="#F9F6EF"/>
<path d="M1501.2 182.539C1499.89 189.038 1490.32 231.518 1482.9 263.789C1480.19 275.614 1474.38 301.264 1470 320.789C1465.61 340.314 1460.23 364.164 1458.03 373.789C1453.75 392.499 1444.53 433.007 1421.3 535.289C1413.3 570.489 1404.32 609.628 1401.33 622.265C1399.29 630.899 1397.51 638.524 1396.58 642.539H1432.36C1434.19 636.18 1440.81 607.525 1449.37 568.922C1455.55 541.011 1464.12 503.273 1475.06 455.789C1477.78 443.964 1483.56 418.539 1487.9 399.289C1492.24 380.039 1498.06 354.614 1500.84 342.789C1503.61 330.964 1509.24 306.439 1513.35 288.289C1517.45 270.139 1523.11 245.614 1525.92 233.789C1529.17 220.12 1531.24 208.944 1531.6 203.104C1532.14 194.442 1532.02 193.659 1529.51 189.38C1526.3 183.894 1520.79 180.443 1511.89 178.347L1511.45 178.243C1506.4 177.052 1504.2 176.532 1503.02 177.401C1502.1 178.073 1501.8 179.575 1501.26 182.239L1501.2 182.539Z" fill="#F9F6EF"/>
<path d="M1653.16 321.479C1649.27 321.731 1646.86 322.339 1646.8 323.087C1646.56 325.655 1647.12 329.933 1650.03 347.789C1653.04 366.21 1655.11 377.849 1660.81 408.289C1662.46 417.089 1664.26 426.989 1664.82 430.289C1672.08 473.55 1681.54 526.597 1682.42 529.039C1682.67 529.727 1685.36 545.139 1688.4 563.289C1691.44 581.439 1694.38 598.539 1694.93 601.289C1695.48 604.039 1697.27 613.406 1698.9 622.106C1700.53 630.805 1702.34 639.692 1702.92 641.856L1703.11 642.539H1737.73L1737.67 642.039C1737.42 639.977 1736.48 634.464 1735.59 629.789C1734.69 625.114 1733 615.664 1731.84 608.789C1728.75 590.419 1726.59 578.272 1719.35 538.289C1715.76 518.489 1710.84 490.589 1708.41 476.289C1705.98 461.989 1702.14 440.389 1699.88 428.289C1697.62 416.189 1693.99 395.939 1691.81 383.289C1682.91 331.569 1682.53 330.321 1673.97 324.833C1668.39 321.251 1665.03 320.709 1653.16 321.479Z" fill="#F9F6EF"/>
<path d="M1632.91 324.81C1630.98 325.257 1623.89 326.631 1617.16 327.862C1610.42 329.093 1604.91 330.246 1604.91 330.424C1604.91 331.933 1615.99 395.967 1619.95 417.289C1622.7 432.139 1625.59 448.114 1626.37 452.789C1630.36 476.624 1632.28 487.582 1636.87 512.789C1645.26 558.798 1647.78 572.771 1649.95 585.289L1651.76 595.74L1652.59 600.526L1654.03 608.789C1657.02 626.05 1658.83 635.761 1660.03 641.039L1660.37 642.539H1696.4C1695.83 639.523 1693.45 626.125 1690.85 611.289C1688.06 595.339 1684.01 573.064 1681.87 561.789C1679.72 550.514 1676.16 530.714 1673.94 517.789C1671.73 504.864 1669.46 491.814 1668.9 488.789C1664.77 466.567 1654.55 409.495 1652.42 396.789C1650.99 388.264 1648.93 376.339 1647.84 370.289C1646.75 364.239 1645.2 355.464 1644.39 350.789C1643.89 347.863 1643.44 345.243 1643.05 342.899C1640.64 328.731 1639.95 324.626 1638.01 323.922C1637.22 323.635 1636.23 323.914 1634.83 324.306C1634.26 324.466 1633.62 324.644 1632.91 324.81Z" fill="#F9F6EF"/>
<path d="M1588.06 333.399C1582.92 334.655 1577.66 336.373 1576.38 337.215C1571.05 340.709 1565.91 350.471 1565.91 357.104C1565.91 359.965 1573.28 402.474 1579.91 437.789C1581.51 446.314 1584.88 465.214 1587.4 479.789C1592.42 508.783 1594.94 522.882 1603.26 568.789C1606.31 585.564 1610.42 608.739 1612.41 620.289C1614.13 630.264 1615.73 639.428 1616.3 642.539H1653.76L1653.63 641.539C1653.14 637.587 1644.24 587.686 1638.52 556.789C1637.14 549.364 1633.51 528.889 1630.45 511.289C1627.39 493.689 1624 474.564 1622.92 468.789C1620.17 454.176 1614.78 423.697 1609.92 395.289C1606.02 372.53 1603.83 360.159 1600.24 340.789C1599.37 336.114 1598.38 332.025 1598.04 331.702C1597.69 331.379 1593.2 332.142 1588.06 333.399Z" fill="#F9F6EF"/>
<path d="M1953.83 257.754C1950.93 259.935 1947.75 262.984 1946.77 264.529C1944.59 267.982 1940.17 287.375 1929.87 338.789C1910.8 434 1874.04 614.201 1870.51 629.782C1869.31 635.064 1868.3 640.251 1868 642.539H1906.23C1906.82 640.314 1907.66 636.125 1908.37 631.789C1909.31 626.014 1913.43 605.314 1917.53 585.789C1921.62 566.264 1926.78 540.839 1929 529.289C1931.22 517.739 1935.01 498.839 1937.42 487.289C1942.69 462.064 1947.84 436.86 1955.4 399.289C1971.48 319.467 1979.14 282.031 1981.8 270.301C1983.9 261.062 1984.43 257.112 1983.63 256.619C1981.75 255.457 1970.58 253.789 1964.67 253.789C1959.74 253.789 1958.51 254.241 1953.83 257.754Z" fill="#F9F6EF"/>
<path d="M1985.12 284.586C1982.21 299.273 1977.59 322.089 1974.86 335.289C1972.12 348.489 1963.61 390.339 1955.94 428.289C1948.27 466.239 1939.7 508.314 1936.9 521.789C1934.09 535.264 1929.37 558.439 1926.4 573.289C1923.44 588.139 1918.97 609.862 1916.46 621.563C1914.5 630.729 1912.82 638.997 1912.18 642.539H1948.49C1950.8 631.035 1959.33 589.825 1961.9 577.789C1963.6 569.814 1966.78 554.064 1968.96 542.789C1971.14 531.514 1974.71 513.739 1976.9 503.289C1979.09 492.839 1984.06 468.314 1987.94 448.789C1991.83 429.264 1997.66 400.914 2000.9 385.789C2004.15 370.664 2008.6 348.839 2010.8 337.289C2013 325.739 2016.42 308.639 2018.39 299.289C2023.72 274.104 2025.24 265.787 2024.64 265.186C2024.34 264.889 2017.42 263.34 2009.25 261.744C2001.09 260.148 1993.51 258.626 1992.41 258.363C1990.54 257.915 1990.06 259.647 1985.12 284.586Z" fill="#F9F6EF"/>
<path d="M2031.49 266.959C2030.82 269.127 2020.89 317.52 2005.48 393.789C1997.53 433.114 1986.7 486.439 1981.41 512.289C1976.12 538.139 1968.69 574.589 1964.9 593.289C1961.11 611.989 1957.32 630.439 1956.48 634.289C1955.8 637.398 1955.21 640.718 1955 642.539H1990.93L1995.59 619.789C1998.45 605.764 2003.54 580.564 2006.88 563.789C2013.21 532.058 2020.52 496.128 2023.97 479.789C2025.08 474.564 2029.31 453.639 2033.37 433.289C2042.13 389.401 2050.17 349.628 2056.46 319.09C2058.97 306.881 2061.09 294.056 2061.17 290.59C2061.45 277.212 2053.91 270.164 2035.16 266.3C2032.86 265.826 2031.78 266.02 2031.49 266.959Z" fill="#F9F6EF"/>
</svg>
